<svg width="40" height="40" viewBox="0 0 40 40" fill="none" xmlns="http://www.w3.org/2000/svg">
<path d="M20 2.5C10.335 2.5 2.5 10.335 2.5 20C2.5 28.2075 8.15 35.0938 15.7725 36.985V25.3475H12.1637V20H15.7725V17.6962C15.7725 11.74 18.4675 8.97875 24.3162 8.97875C25.425 8.97875 27.3375 9.19625 28.12 9.41375V14.2613C27.7075 14.2175 26.99 14.1963 26.0987 14.1963C23.2288 14.1963 22.12 15.2838 22.12 18.1088V20H27.8362L26.8538 25.3475H22.12V37.3713C30.785 36.325 37.5 28.9463 37.5 20C37.5 10.335 29.665 2.5 20 2.5Z" fill="#272727"/>
</svg>
