<svg width="40" height="40" viewBox="0 0 40 40" fill="none" xmlns="http://www.w3.org/2000/svg">
<path fill-rule="evenodd" clip-rule="evenodd" d="M32.6388 3.75H7.36125C5.3675 3.75 3.75 5.36625 3.75 7.36125V32.6388C3.75 34.6325 5.36625 36.25 7.36125 36.25H32.6388C34.6325 36.25 36.25 34.6338 36.25 32.6388V7.36125C36.25 5.3675 34.6338 3.75 32.6388 3.75ZM13.5763 31.7362H8.73V16.0875H13.5763V31.7362ZM11.13 14.0387C9.54625 14.0387 8.26375 12.7462 8.26375 11.1512C8.26375 9.55625 9.54625 8.26375 11.13 8.26375C12.7137 8.26375 13.995 9.55625 13.995 11.1512C13.995 12.7462 12.7125 14.0387 11.13 14.0387ZM31.7362 31.7362H26.9137V23.5225C26.9137 21.27 26.0575 20.0113 24.275 20.0113C22.3363 20.0113 21.3225 21.3213 21.3225 23.5225V31.7362H16.675V16.0875H21.3225V18.195C21.3225 18.195 22.72 15.6088 26.0413 15.6088C29.3625 15.6088 31.7362 17.635 31.7362 21.8275V31.7362Z" fill="#272727"/>
</svg>
