<svg width="40" height="40" viewBox="0 0 40 40" fill="none" xmlns="http://www.w3.org/2000/svg">
<g clip-path="url(#clip0_204_386)">
<path d="M39.1637 10.31C38.7038 8.5775 37.3488 7.21375 35.6275 6.75C32.5075 5.90875 20 5.90875 20 5.90875C20 5.90875 7.49125 5.90875 4.3725 6.75C2.65125 7.2125 1.29625 8.5775 0.83625 10.31C0 13.45 0 20 0 20C0 20 0 26.5513 0.83625 29.69C1.29625 31.4225 2.65125 32.7863 4.3725 33.2488C7.4925 34.09 20 34.09 20 34.09C20 34.09 32.5088 34.09 35.6275 33.2488C37.3488 32.7863 38.7038 31.4213 39.1637 29.69C40 26.55 40 20 40 20C40 20 40 13.45 39.1637 10.31ZM15.9088 25.9475V14.0525L26.3638 20L15.9088 25.9475Z" fill="#272727"/>
</g>
<defs>
<clipPath id="clip0_204_386">
<rect width="40" height="40" fill="white"/>
</clipPath>
</defs>
</svg>
